<svg xmlns="http://www.w3.org/2000/svg" viewBox="0 0 23.3 35.92"><defs><style>.cls-1,.cls-2{fill:#f26f8a;}.cls-2{font-size:24px;font-family:AGaramondPro-Regular, Adobe Garamond Pro;}</style></defs><g id="Layer_4" data-name="Layer 4"><path class="cls-1" d="M13.63,8.09s-4.37.14-5.65,0c0,0-.22.18-.05.57,0,0,1.41,0,1.65.36A1.78,1.78,0,0,1,10,10.06l.07,6.66v4.42A26.33,26.33,0,0,1,9.87,24a12.21,12.21,0,0,1-.3,1.61,1.35,1.35,0,0,1-.37.57,1,1,0,0,1-.85.22s-.45-.07-.75-.15a3.2,3.2,0,0,0-.94-.12,1.11,1.11,0,0,0-.62.65s-.2.44.08.68a2.2,2.2,0,0,1,.81.7,3.36,3.36,0,0,1,.49,1.6,9.1,9.1,0,0,1-.1,1s-.23.91.2,1.14a.75.75,0,0,0,.91-.22,1.43,1.43,0,0,0,.12-.91s-.27-.93-.29-1a10.84,10.84,0,0,1-.14-1.1s0-.79.18-1l.64-.34s.4-.07.39.3l-.09,1s-.17.7.1.93.71-.08.76-.23c0,0,.24-.24,0-.85a4,4,0,0,1-.13-.86,2.36,2.36,0,0,1,.22-1l.5-.46s.4-.15.4.18L11,27.49s-.26,1,0,1.23c0,0,.42.28.69,0a1.46,1.46,0,0,0,.07-.85l-.1-1.21-.07-1.45.21-2.27.12-2.57v-10s0-.89.25-1.15a.88.88,0,0,1,.61-.41,3.41,3.41,0,0,1,.86-.14Z" transform="translate(-5.97 3.92)"/><text class="cls-2" transform="translate(4.58 19.92)">D</text></g><g id="Layer_2" data-name="Layer 2"><path class="cls-1" d="M19.71.91a4.24,4.24,0,0,1,.61,1.67L20.17,5s.06.43.41.45A.43.43,0,0,0,21,4.93c0-.18,0-1.51,0-1.51s-.05-.49.31-.65.49.33.46.83-.2,3.89-.2,3.89a.7.7,0,0,0,.63.81c.72.08.69-.81.69-.81l-.12-3.17s.15-.58.42-.6.41.87.42.93,0,1.39,0,1.39.16.47.49.43.37-.49.37-.49l-.14-1.85s.06-.49.46-.24c0,0-1.09-2.18-2.25-2.26A8,8,0,0,0,19.71.91Z" transform="translate(-5.97 3.92)"/></g></svg>