<?xml version="1.0" encoding="utf-8"?>
<!-- Generator: Adobe Illustrator 25.2.1, SVG Export Plug-In . SVG Version: 6.00 Build 0)  -->
<svg version="1.1" id="Layer_1" xmlns="http://www.w3.org/2000/svg" xmlns:xlink="http://www.w3.org/1999/xlink" x="0px" y="0px"
	 viewBox="0 0 7319.8 4113.1" style="enable-background:new 0 0 7319.8 4113.1;" xml:space="preserve">
<style type="text/css">
	.st0{clip-path:url(#SVGID_2_);}
	.st1{fill:#F6A1AE;}
	.st2{opacity:0.38;fill:#F2F2F2;enable-background:new    ;}
	.st3{opacity:0.5;fill:#F2F2F2;enable-background:new    ;}
	.st4{opacity:0.41;fill:#F2F2F2;enable-background:new    ;}
	.st5{opacity:0.55;fill:#F2F2F2;enable-background:new    ;}
	.st6{opacity:0.52;fill:#F2F2F2;enable-background:new    ;}
	.st7{opacity:0.53;fill:#F2F2F2;enable-background:new    ;}
	.st8{opacity:0.54;fill:#F2F2F2;enable-background:new    ;}
	.st9{opacity:0.58;fill:#F2F2F2;enable-background:new    ;}
	.st10{fill:#4779BD;stroke:#4779BD;stroke-miterlimit:10;}
	.st11{fill:#FBB317;}
	.st12{fill:#F26F8A;}
	.st13{fill:#F26F8A;stroke:#F6A1AE;stroke-miterlimit:10;}
</style>
<g id="Layer_10">
	<g>
		<defs>
			<rect id="SVGID_1_" x="0" width="7319.8" height="4115.4"/>
		</defs>
		<clipPath id="SVGID_2_">
			<use xlink:href="#SVGID_1_"  style="overflow:visible;"/>
		</clipPath>
		<g class="st0">
			<g>
				<path class="st1" d="M3191.1,4394h868c54.8,0,99.2,44.4,99.2,99.2v69.6c0,54.8-44.4,99.2-99.2,99.2h-868
					c-54.8,0-99.2-44.4-99.2-99.2v-69.6C3091.9,4438.4,3136.3,4394,3191.1,4394z"/>
			</g>
			<g>
				<path class="st2" d="M455.2,435.8c0,0-324,62.5-462,263.7c-100.7,146.7-204.9,502.4-253.7,683.6c-29.9,110.9,4,230.4,91.1,305.4
					c57.3,49.4,138.7,81,251.5,51c201.4-53.6,611.6-346.3,838.7-516.4c128.5-95.8,193.5-254.8,169.1-413.2
					c-15.2-97.2-54.4-195.6-142.9-254.7C724.6,407.3,455.2,435.8,455.2,435.8z"/>
			</g>
			<g>
				<path class="st2" d="M6407.8,3013.4c0,0,241.5-19.4,378.5,95.5c100.1,83.9,243.7,314.9,313.9,433.4c43.6,72.3,42,163.2-4.1,234
					c-30.8,46.2-82.1,84.6-167.8,85.5c-152.9,1.7-500.5-124.5-694.5-200c-109.7-42.5-186.9-142-200.8-258.8
					c-8.4-71.6,0-149,50.9-208.2C6211.7,3046,6407.8,3013.4,6407.8,3013.4z"/>
			</g>
			<g>
				<path class="st3" d="M1532.6,1516.5c0,0-182.2-69.7-300.1,139.3c-81.2,144,38.5,310.8,120.9,400.8
					c56.8,62.8,135.9,100.9,220.4,106.1c29.4,1.9,58.9-1,87.4-8.5C1779,2122,1838,1688,1532.6,1516.5z"/>
			</g>
			<g>
				<path class="st3" d="M6772.7,1310.6c0,0,22.2-353.1-403.4-444.3c-293.2-62.9-517.5,234.7-628.7,425.8
					c-77.1,132.7-102.5,290.3-64.7,439c12.7,51.9,33.7,101.5,62.1,146.8C5857.3,2064.6,6640.8,1932.1,6772.7,1310.6z"/>
			</g>
			<g>
				<path class="st4" d="M226.5,2240.2c33.8-51.8,93.6-80.3,155.1-74c162.2,15.3,557.3,60.6,783.5,155.4
					c289.4,121.2,465.1,299.2,376.7,378.5c-88.4,79.3-480.9,43.9-480.9,43.9s-534.2-106.6-673.8-223.9
					C274.7,2425.6,160,2344.6,226.5,2240.2z"/>
			</g>
			<g>
				<path class="st3" d="M5554.5,2627.5c0,0-117.9-45-194,90.1c-52.5,93.1,24.9,201,78.1,259.1c36.7,40.6,87.8,65.3,142.5,68.6
					c19,1.2,38.1-0.6,56.5-5.4C5713.8,3019,5751.9,2738.2,5554.5,2627.5z"/>
			</g>
			<g>
				<path class="st4" d="M6384.5,2521.7c-12.3-60.6,10.3-122.9,58.5-161.6c126.3-103,439.4-348.3,667-439.4
					c291.3-117,541.2-113.4,534,5.1s-311.7,368.8-311.7,368.8s-455.2,299.2-637,313.6C6549,2619.9,6410.4,2642.8,6384.5,2521.7z"/>
			</g>
			<g>
				<path class="st5" d="M5938.1-79.5c0,0-117.9,212.9,275,561.1c217.3,192.5,531,252.6,768,267.9c288.8,18.6,451.2-327.2,251.9-537
					c-51.8-54.6-122.5-107.2-217.9-154.4c0,0-353.7-37.5-495.7-347.5C6377.4-599.5,5903.5-340.6,5938.1-79.5z"/>
			</g>
			<g>
				<path class="st5" d="M1774.6,3102.6c0,0-117.9,212.9,274.9,561.1c217.3,192.5,531,252.6,768,267.9
					c288.8,18.6,451.2-327.2,251.9-537c-51.8-54.6-122.5-107.2-217.9-154.4c0,0-353.4-37.5-495.7-347.5
					C2213.6,2582.7,1740,2841.5,1774.6,3102.6z"/>
			</g>
			<g>
				<path class="st6" d="M1855.6,346c-147-30.4-295.6,48.2-349.2,188.6c-20.8,52.8-29.8,109.5-26.1,166.1
					c14.8,204.9,293.4,569.2,454.2,590.7s519.8-10.7,610.9-134c78.8-106.6,293.2-314,353.7-342.9c60.5-29,188.2-450.1-39.9-471.6
					c-228.1-21.4-437.8,111.6-625,90.6C2122.3,421,1981.7,372,1855.6,346z"/>
			</g>
			<g>
				<path class="st6" d="M4353.9,4198.1c55.5,139.3,203,220.3,349.6,188c55.5-11.7,107.8-35.5,153-69.7
					c163.1-124.9,314.4-557.9,243.7-704c-70.7-146.1-294.7-428.3-447.8-436.6c-132.3-7.2-423.3-72.3-480.9-106.9
					c-57.6-34.6-479.5,90.3-372,292.6c107.5,202.2,333.9,304.4,419.3,472.2C4270,3934.1,4306.4,4078.5,4353.9,4198.1z"/>
			</g>
			<g>
				<path class="st6" d="M5470.2,331.1c0,0-303.9-195.9-465.9-60.9s-286.1,480.9-449.5,517.5s-215.5,413.4,21.8,487.6
					c165.4,51.7,452.8,5,611.6-27.9c72.5-15.2,139.1-51,191.8-103c66.1-65.1,161.6-159.6,234.6-234.3
					C5738.7,783.2,5929.3,525.7,5470.2,331.1z"/>
			</g>
			<g>
				<path class="st6" d="M2782.3,2754.3c0,0,49.8,157.4,146,157.1c96.2-0.3,240.6-85.7,308.6-50.8c68,34.9,196.2-82.5,134.4-177.6
					c-42.9-66.4-157.6-133.7-223.1-168.4c-29.9-15.9-63.7-22.7-97.4-19.8c-42.2,3.6-103.3,9-150.7,14
					C2819.6,2517.1,2677.6,2552.1,2782.3,2754.3z"/>
			</g>
			<g>
				<path class="st6" d="M5077.9,2354.9c0,0,221.5-23.4,247-150.7c25.6-127.4-48.5-341.2,16.1-421.8
					c64.6-80.5-56.3-281.6-198.7-225.5c-99.3,39.1-219.2,172.5-282.7,249.7c-28.9,35.2-47.1,78-52.4,123.2
					c-6.6,56.8-16.1,139-22,203C4774.5,2241.8,4782.5,2438.9,5077.9,2354.9z"/>
			</g>
			<g>
				<path class="st7" d="M192.9,2984.7c0,0,150-187.6,273.3-144.7c123.2,42.9,160.8,235.8,203.6,257.2s150,123.2,160.8,209
					c10.7,85.7-211,238.4-392.2,148.7S117.9,3134.8,192.9,2984.7z"/>
			</g>
			<g>
				<path class="st8" d="M1099.8,3695.3c0,0-82.5-300.1,8.9-332.6s212.7-117.9,327.5,221.6s208.4,709.5,208.4,709.5
					s-13.8,151.6-180.7,86.4c-166.9-65.3-225.1-239.5-225.1-239.5L1099.8,3695.3z"/>
			</g>
			<g>
				<path class="st8" d="M4009.2,2718.1c0,0-286.6-120.7-255.8-212.8c30.8-92.1,39-240.1,376.7-120.1
					c337.8,120,686.4,275.1,686.4,275.1s110.6,104.7-43.9,195.4c-154.5,90.8-327.6,28.8-327.6,28.8L4009.2,2718.1z"/>
			</g>
			<g>
				<path class="st9" d="M2438.2,1512.7c0,0-251.4-23.9-308.7,351.6c-34.1,223.5-67.1,358.1-88.3,430.5
					c-14.4,49.4-0.4,102.8,36.3,138.8c72.3,71.4,201.8,159.4,337,59.2c204.9-151.8,365.1-379.4,364.7-586.1
					C2778.7,1700.1,2692.8,1493.5,2438.2,1512.7z"/>
			</g>
			<g>
				<path class="st8" d="M5615.1,4060c0,0-231-208.3-171.5-285.1c59.5-76.8,115.8-213.9,395.2,10.4s557.7,485.6,557.7,485.6
					s70,135.2-105.8,170.1s-318.7-80.4-318.7-80.4L5615.1,4060z"/>
			</g>
			<g>
				<path class="st1" d="M3191.1,4962h868c54.8,0,99.2,44.4,99.2,99.2v69.6c0,54.8-44.4,99.2-99.2,99.2h-868
					c-54.8,0-99.2-44.4-99.2-99.2v-69.6C3091.9,5006.4,3136.3,4962,3191.1,4962z"/>
			</g>
			<g>
				<path class="st1" d="M3191.1,5530h868c54.8,0,99.2,44.4,99.2,99.2v69.6c0,54.8-44.4,99.2-99.2,99.2h-868
					c-54.8,0-99.2-44.4-99.2-99.2v-69.6C3091.9,5574.5,3136.3,5530,3191.1,5530z"/>
			</g>
			<g>
				<path class="st1" d="M3191.1,6098.1h868c54.8,0,99.2,44.4,99.2,99.2v69.6c0,54.8-44.4,99.2-99.2,99.2h-868
					c-54.8,0-99.2-44.4-99.2-99.2v-69.6C3091.9,6142.5,3136.3,6098.1,3191.1,6098.1z"/>
			</g>
			<path class="st1" d="M680.5,6.5C482.6,7,322.6,167.9,323.1,365.8c0,8.5,0.3,16.9,1,25.4c50.6,685.9,140.7,2114.5,71.6,2802.5
				c0,0-36.8,297.4,173.6,300.1c139.6,1.8,202.1-131,228.3-220.5c12.4-42.7,16.6-87.4,12.5-131.7L563.7,423.3
				c-7.7-81.7,13.1-163.5,58.9-231.5c1-1.6,2.1-3.2,3.2-4.7C738.6,24.6,961.6-15.7,1124.1,97c11.2,7.8,22,16.2,32.3,25.2
				c146.8,129.2,301.5,401.9,246.5,975.3c-4,41.4-0.7,83.3,9.8,123.6c40.1,152.4,178.1,477.6,607,327.6c0,0,291.5-109.6,290.7-542.4
				c0,0,5.4-991.3,262.1-998.7C2765.6,1.8,1379.8,4.8,680.5,6.5z"/>
			<path class="st1" d="M4163.3-8.6c0,0,246.8,892.7,177.2,1182.1c-4.9,20.4-0.4,93.8,10.7,112.5c20,33.8,54.8,92.6,155.4,85.7
				c105.7-7.2,160.8-58.9,160.8-144.7c0-14-11.7-67.3-16.1-80.4c-41.3-123.2-317.6-978.2-30-1041.3c0,0,145.8,23.2,145.8,189.3
				S5169,396.5,5169,396.5s175.9-42.9,201.1-182.2s181.4-183.4,181.4-183.4L4163.3-8.6z"/>
			<path class="st1" d="M5305.5,11c0,0,148.6,1649.4,33.5,2248.2c0,0-9.3,184.4,156.6,184.3c165.8-0.1,193.9-191.9,193.9-191.9
				S5504,433.7,5548.2,287.1l321.5-299L5305.5,11z"/>
			<path class="st1" d="M6330.7-1.2c0,0,300.6,1038,79.5,2341.7c0,0-47.5,569.8,369.4,529.4c417-40.3,317.1-512.1,317.1-512.1
				S6748.4,469.2,7012.6,4.2L6330.7-1.2z"/>
			<path class="st10" d="M-2.7,0v2373.8c0.1,11.7,2.9,23.2,8,33.6c20.5,41.8,80.6,131.7,176.8,5.7c10.9-14.4,16.4-32.2,15.5-50.2
				L98,413.6c0,0-2.7-209.7,105.7-285.6c7.7-5.3,16.4-9.1,25.6-11c55.8-12.6,258.7-34.7,259.2,309.6c0.6,399.2-106.7,899.3,0,1086.6
				c106.7,187.3,364.4,66.8,378.2-91.6s-81.5-961.4-53.6-1052.8c18-58.9,57.7-135,158.9-181.2c111.9-51,239-7,312.6,104
				c80.4,121.2,215.6,267.2,380.8,220c271.1-77.5,281.2-220.2,457.8-227.1c176.6-7,338.6,51.8,388.9,32.2
				c35.4-13.8,139.3-64.8,260.7-92.6c81.2-18.6,156.1,56.3,153.2,153l-28,938.9c0,8.8-0.5,71.2,2.3,79.6
				c16.6,50.2,97.3,77.2,158.4,15.2c16.5-16.7,29-50.2,28.7-73.7l-16.4-1125.3c-0.1-4.3,0.2-8.6,0.9-12.9
				c4.7-29.4,12.9-58,24.4-85.5c34-79,131.4-78.2,164.4,1.3c30.8,74.1,78.4,136.8,133.6,169.9c85.7,51.4,224.2,38.7,296.9-7
				c53.6-33.8,234.7-222,257.2-222s208.2-29.3,243.8,63.7c31.5,82.2,263.7,142.8,343.4-27.3c35.6-75.9,150-46,145.1,37.5
				c0,1.4,0,2.8,0,4.2c-10.7,136.9-36.7,604.7-39.1,648.4c0,2.5,0,4.9,0,7.4c0.8,18.4,6.1,92.5,39.8,96.5c38.5,4.9,94.3,4.9,94.3-93
				V166.8c0-1.6,0-3.2,0-4.8c-1.8-18.4-7.5-152,79.4-148.9"/>
			<path class="st10" d="M7319.8,6.5c0,0,2.7,1113.9,1.3,1171.7c-1.3,57.7-46.9,89.3-104.8,96.9c-35,4.6-58.6-49.5-71.8-92.9
				c-8.9-30-11.6-61.6-7.9-92.7c14.3-120.9,50.9-478.5-5-559c-67.5-97.3-39.7,16.4-210.1,0s-140.3-292.4-230.1-524
				c-61-157.6-142.2-100.7-187.6-48.2c-21.3,24.2-35.5,57.8-41.5,94.5c-14.5,92.1-58.9,287.2-173.7,259.4
				c-67.3-16.1-104.5-79.9-125.2-144.7c-44.9-141-191.8-141-231.7,2.9c0,1-0.5,2-0.8,2.9c-7,26.9-9.1,54.9-6.2,82.6l69.7,669.8
				c5,43.4-3.1,87.3-23.1,126c-106.2,194-189.2,77.5-227.4-3.5c-15.7-34.4-22.3-72.3-19.2-110c10.4-141.8,37.9-541.2,36.6-775
				C5760.1-43.1,5637.6-32.4,5568-9.7c-28.3,9.3-53.3,32.2-70.7,63.8c-228.4,418.4-222.8,295.8-409.2,336
				C4895.8,431.5,4745,10.2,4745,10.2"/>
			<path class="st11" d="M-182.2,325.2c0,4.2,0.3,8.3,1,12.4c10.1,58.7,94.4,507.8,311.4,489.7c229.4-19.1,362.4,57.6,494.2-478.1
				c3.3-13.6,10.7-26,21-35.4C712.7,251.9,964.5,51,956.1,512.4c-9.4,504.7-65.2,1346-70.8,1430.7c-0.3,5.2-0.1,10.3,0.6,15.4
				c4.9,32.5,29.7,146.7,131.1,124.9c117.9-25.3,137.4-42.9,155.4-132.7c17.4-85.7-48.5-1450.2-54.1-1564.3
				c-0.3-5.3,0.1-10.5,1-15.7c9.3-54.3,69.7-361.6,237.3-348.7c154.8,11.7,212.1,169,226.5,219.1c2.7,9.4,3.4,19.2,2.1,28.9
				l-70.4,540.4c0,0-15.1,130.6,72.2,151.2c87.3,20.6,152.8-25.1,153.4-134.7c0.5-92.2,0-459.3,0-572.7c0-22.3,10.3-43.3,28-56.9
				c58.2-44.8,197.7-133.1,328.5-72.4c24.9,11.6,40.9,36.4,41.3,63.8c1.4,97.4,20.6,343.9,179.9,347.2
				c191.9,4,355.9-66.5,383.3-319.6c2-18.4,11.1-35.2,25.4-46.9c70.5-58,292.7-209.4,493.5-19.6c5,4.7,9.2,10.1,12.5,16.1
				c29.5,52.7,182.9,319.1,262.6,302.4c86.8-18.2,395.2,65.8,489.8-332.7c3.6-15.3,12.1-29,24.2-39.1
				c38.4-31.3,128.6-94.7,220.2-86.2c105.4,9.9,27.2,433,5.4,542.1c-6.9,34.5,11.6,69.7,44.5,81l4.7,1.4
				c44.4,12,61.1-44.3,61.1-61.2V133.6c0-4,0.3-8,1-11.9c4.3-25,25.6-109.4,115.7-99.8c105.6,11.3,244.5,5.6,239,281.6
				c-4.1,200.1,120.4,231.4,189.2,233.6c29.3,0.9,56.1-16.5,67.4-43.6c18.9-45.1,43.2-134,47.7-299.1c0.1-3.4,0.4-6.7,1-10.1
				c5.4-29.6,34.4-172.6,123.2-162.5c99.3,11.3,212.4,150.5,178.1,356.9c-27.7,166.5,86.5,300.4,131.7,345.8
				c12.9,13.2,30.7,20.7,49.2,20.6c50.7-0.7,145.1-33.6,147.8-267.6c3.8-320.5-51.7-361.1,53.6-349.3
				c105.3,11.8,124.3,139.8,106.6,250.5c-17.7,110.7,139.3,187,166.4,89.7s41.7-324.9,112.2-278.6c68.6,45-20,1135.6-24.8,1193.7
				c0,1.4-0.3,2.7-0.5,4c-2.3,16.1-17.4,143.3,85.7,162.7c95.4,18,124.7-118.6,130.7-155c0.9-5.3,1.2-10.7,0.9-16.1L6202.2,306
				c-0.6-9.4,0.7-18.9,3.8-27.9c14-40.7,58.9-154.8,123.2-154.8c77.8,0,155.4,61.9,244.6,39.4c64.3-16.4,134.3-83.2,167.6-118.6
				c14.1-15.1,34.2-23.2,54.9-22c68.3,4.2,215.1,33.9,238.1,209c2.4,17.9,11.4,34.3,25.3,45.8c51,42.2,174.1,122.6,235.8-20.6
				c78.8-183.4-5.4-218.8,39.4-246.2c33.4-20.8,17-256.6,6.3-374.5c-3-37.1-34.4-65.5-71.7-64.8L-113.7-244.5
				c-38.4,1.2-68.8,32.8-68.5,71.2V325.2z"/>
			<path class="st12" d="M-506.5,159.7c0,0-22.9,1314.6,239.1,1351.8s440,63.1,474.3-6.1c32.7-66,117.9-20.5,16.5-966.2
				c-11.5-106.3,37.6-210,127-268.5c78.7-51.5,176.3-91.1,256.8-47.9c122.8,65.7,217.7,327.4,257.8,455.5
				c14.2,45.5,22,92.7,23,140.3c1.3,62.7,2.1,161-2.1,263.4c-7,171.7,199.8,197.3,209,10.3c6.4-131-35-392-23.1-575.9
				c5.8-91.2,65.5-170,151.7-200.2c67.4-23.3,151.1-68.9,190.1-156.7C1484.3,0,1564.7-10.7,1564.7-10.7L-205.6,0L-506.5,159.7z"/>
			<path class="st12" d="M1564.7-10.7c0,0,230.4-30.4,213.5,426.2s347,474.4,347,474.4s295.2,23.5,323.7-450.4
				c0,0-19.3-360.6,123.8-366.6s214.7,59.6,256.5,47.7s149-83.5,160.9-119.3"/>
			<path class="st12" d="M3322.3-10.7c0,0,82.7,107.6,107.6,173.8c18.1,48.2,118.8,86.8,189.7,61.9c27.4-9.8,48.1-32.5,55.2-60.7
				c10.7-41.8,41.5-124.2,117.2-121.2c81.3,3.3,57.3,234,44.7,324.6c-3.8,27.9,3.7,56.1,20.9,78.3c11.3,14.7,24.9,27.6,38,28.7
				c30.8,2.7,60.1-43.2,66.1-61.7c4.3-13.1-11.1-171.5-20.5-262c-5.2-49,29.5-93.2,78.3-99.8c29.1-3.6,59.9,4.1,82.2,39.3
				c0,0,106.6,202.3,192.9,141.6S4432.2-2.5,4432.2-2.5L3322.3-10.7z"/>
			<g>
				<path class="st12" d="M4744.3-1.2c0,0,96.5,972.8,22.4,1519.4c-5,33.6,5.4,67.6,28.1,92.8c20.5,22,53.6,36.8,102.9,23.5
					c92.7-25,88.3-99.1,85.7-112.5c-1.1-5.9,1.1,18.8,0.5,12.8c-13.6-142.6-124.9-1326-87.1-1427.4c40.2-108.4,163.5-103,163.5-103"
					/>
			</g>
			<path class="st12" d="M4688.8,0c0,0,60.3,3.8,69.7,146.6L4798,0H4688.8z"/>
			<path class="st12" d="M5232-1.2c0,0,158.5,400.2,297.1,381c138.6-19.2,278.1,29,347.5-250.6c0,0,35.6-161.6,106.4-155.4
				s114.6,66,153.8,75s148.4-43.5,150.4-60.7"/>
			<path class="st13" d="M6427.4-10.7c0,0,141.8,503.7,97.4,920.3c-3.1,28.5,0.3,57.3,10,84.3c14.1,39.3,41.6,87.6,93.3,98
				c35.1,7,64.3-14.4,87.4-42.9c39.5-50.7,54.1-116.5,39.7-179.1c-39.2-177.2-132.4-633.4-74.3-724.6
				c72.5-113.7,231.1-104.3,277.8-45.9c46.8,58.4,339.7,114.1,389.3-96"/>
			<path class="st1" d="M558.7-12.2c0,0,68.5,89,89,143.8c15.1,40,98.4,71.8,157,51.3c22.7-8.1,39.8-26.9,45.7-50.3
				c8.8-34.6,34.3-102.8,97-100.3c67.3,2.7,47.4,193.7,37,268.6c-3.1,23.1,3.1,46.4,17.3,64.8c9.4,12.1,20.6,22.8,31.4,23.7
				c25.5,2.3,49.7-35.8,54.7-51c3.6-10.7-9.2-141.9-16.9-216.9c-4.4-40.7,24.5-77.4,65.1-82.6c24.1-3,49.6,3.4,68,32.5
				c0,0,88.2,167.4,159.8,117.1c71.6-50.3,113.4-194.1,113.4-194.1L558.7-12.2z"/>
			<g>
				<path class="st5" d="M3632.1,2227.5c0,0,229.9,79.9,506-366.5c152.7-246.9,158.4-566.3,133.1-802.5
					c-30.9-287.7-399.4-388.8-572.1-156.6c-44.9,60.4-84.7,139-115,241.1c0,0,23.3,354.6-257.9,547.6S3380.8,2306.1,3632.1,2227.5z"
					/>
			</g>
		</g>
	</g>
</g>
</svg>
