<?xml version="1.0" encoding="utf-8"?>
<!-- Generator: Adobe Illustrator 25.2.0, SVG Export Plug-In . SVG Version: 6.00 Build 0)  -->
<svg version="1.1" id="Layer_1" xmlns="http://www.w3.org/2000/svg" xmlns:xlink="http://www.w3.org/1999/xlink" x="0px" y="0px"
	 viewBox="0 0 350 149.9" style="enable-background:new 0 0 350 149.9;" xml:space="preserve">
<style type="text/css">
	.st0{fill:none;stroke:#4779BD;stroke-width:9;stroke-linecap:round;stroke-linejoin:round;}
	.st1{fill:#4779BD;stroke:#4779BD;stroke-linecap:round;stroke-linejoin:round;}
</style>
<g>
	<g>
		<path class="st0" d="M135.6,11h57.5c15.9,0,28.8,12.9,28.8,28.8v57.5c0,15.9-12.9,28.8-28.8,28.8h-57.5
			c-15.9,0-28.8-12.9-28.8-28.8V39.7C106.8,23.8,119.7,11,135.6,11z"/>
		<path class="st0" d="M187.3,64.8c1.9,12.6-6.8,24.3-19.4,26.1c-12.6,1.9-24.3-6.8-26.1-19.4s6.8-24.3,19.4-26.1
			c2.2-0.3,4.5-0.3,6.8,0C177.9,46.9,185.8,54.8,187.3,64.8z"/>
	</g>
</g>
<circle class="st1" cx="197.1" cy="33.8" r="6.2"/>
</svg>
